<?xml version="1.0" standalone="no"?><!DOCTYPE svg PUBLIC "-//W3C//DTD SVG 1.1//EN" "http://www.w3.org/Graphics/SVG/1.1/DTD/svg11.dtd"><svg t="1697521271938" class="icon" viewBox="0 0 1024 1024" version="1.1" xmlns="http://www.w3.org/2000/svg" p-id="37726" xmlns:xlink="http://www.w3.org/1999/xlink"><path d="M796.3 645l0.2-0.2c-0.3-4.1-1-8.4-2-12.9-0.4-2.8-0.9-5.7-1.3-8.5-0.1 0.2-0.3 0.4-0.4 0.7-5.9-22.9-16.3-45.1-16.3-45.1L539.9 91.5c-35.5-61.4-66.7 0-66.7 0L240.9 587.8c-9.7 26.4-12 47.2-12 47.2-1.7 12.8-2.7 25.7-2.7 39 0.1 157.8 128 285.7 285.9 285.7s285.7-128 285.7-285.7c0-9.8-0.5-19.4-1.5-29m-284.2 6.6c-85.5-77.2-167.1-71.4-224.3-49.1l223-465.9 215.4 456.3c17.8 41.9 20.2 68.8 20.2 80.3-55.3 42.1-140.3 63.2-234.3-21.6m0 0" p-id="37727" fill="#7297FF"></path></svg>