<?xml version="1.0" standalone="no"?><!DOCTYPE svg PUBLIC "-//W3C//DTD SVG 1.1//EN" "http://www.w3.org/Graphics/SVG/1.1/DTD/svg11.dtd"><svg t="1697521407645" class="icon" viewBox="0 0 1024 1024" version="1.1" xmlns="http://www.w3.org/2000/svg" p-id="42361" xmlns:xlink="http://www.w3.org/1999/xlink"><path d="M511.25 337.9c-96.11 0-174.3 78.19-174.3 174.3 0 96.11 78.19 174.3 174.3 174.3 96.11 0 174.3-78.19 174.3-174.3 0-96.11-78.19-174.3-174.3-174.3z m0 263.26c-49.06 0-88.96-39.91-88.96-88.96 0-49.06 39.91-88.96 88.96-88.96s88.96 39.91 88.96 88.96c0.01 49.05-39.9 88.96-88.96 88.96zM469.4 85.33h85.33v162.12H469.4zM469.27 776.55h85.33v162.12h-85.33zM668.93 294.82l114.635-114.635 60.344 60.344-114.635 114.635zM180.085 783.48L294.72 668.843l60.344 60.344-114.636 114.635zM668.836 729.274l60.344-60.344 114.635 114.635-60.344 60.344zM180.178 240.429l60.344-60.344L355.157 294.72l-60.344 60.344zM776.55 469.4h162.12v85.33H776.55zM85.33 469.27h162.12v85.33H85.33z" p-id="42362" fill="#FF9750"></path></svg>