<?xml version="1.0" standalone="no"?><!DOCTYPE svg PUBLIC "-//W3C//DTD SVG 1.1//EN" "http://www.w3.org/Graphics/SVG/1.1/DTD/svg11.dtd"><svg t="1697521451303" class="icon" viewBox="0 0 1024 1024" version="1.1" xmlns="http://www.w3.org/2000/svg" p-id="47345" xmlns:xlink="http://www.w3.org/1999/xlink" width="64" height="64"><path d="M512 85.333333C276.48 85.333333 85.333333 276.48 85.333333 512s191.146667 426.666667 426.666667 426.666667 426.666667-191.146667 426.666667-426.666667S747.52 85.333333 512 85.333333z m0 768c-188.16 0-341.333333-153.173333-341.333333-341.333333s153.173333-341.333333 341.333333-341.333333 341.333333 153.173333 341.333333 341.333333-153.173333 341.333333-341.333333 341.333333z m-42.24-597.333333L293.546667 725.333333h81.066666l42.666667-119.893333h189.44l42.24 119.893333h81.066667L553.813333 256h-84.053333z m-28.16 281.173333l68.266667-194.133333h3.84l68.266666 194.133333h-140.373333z" p-id="47346"></path></svg>