<?xml version="1.0" standalone="no"?><!DOCTYPE svg PUBLIC "-//W3C//DTD SVG 1.1//EN" "http://www.w3.org/Graphics/SVG/1.1/DTD/svg11.dtd"><svg t="1697521391250" class="icon" viewBox="0 0 1024 1024" version="1.1" xmlns="http://www.w3.org/2000/svg" p-id="41313" xmlns:xlink="http://www.w3.org/1999/xlink"><path d="M839.8208 660.7232l-52.6336-29.7472 45.4016-25.664c16.0768-9.088 21.568-29.1328 12.3136-44.8512-9.28-15.744-29.824-21.1584-45.9008-12.0064l-78.976 44.608-142.3104-80.384 144.3072-81.4976 77.0176 43.52c5.2992 2.9312 11.0592 4.3136 16.768 4.3136 11.6096 0 22.912-5.8496 29.12-16.32a32.5632 32.5632 0 0 0-12.2752-44.928l-43.4688-24.4992 49.4592-27.904a32.4736 32.4736 0 0 0 12.2752-44.928c-9.3184-15.744-29.8496-21.0944-45.8752-12.0832l-49.408 27.9808-0.0384-48.9984c0-18.176-15.0144-32.8576-33.5744-32.8576h-0.0384c-18.5472 0-33.5616 14.7584-33.5616 32.8576v86.912L546.112 454.656V293.9136l77.0304-43.4688c16-9.0624 21.5296-29.12 12.288-44.8512-9.3056-15.7184-29.824-21.1456-45.8752-12.0064l-43.4432 24.4992v-57.2288c0-18.1632-15.04-32.8576-33.5872-32.8576-18.5728 0-33.5872 14.6944-33.5872 32.8576v57.1776l-43.3408-24.448c-16.1792-9.1392-36.608-3.712-45.9008 12.0064-9.28 15.744-3.776 35.7888 12.3136 44.8512l76.928 43.4688v162.9824l-142.272-80.3328v-89.216c0-18.176-15.0912-32.8704-33.5872-32.8704-18.56 0-33.6 14.6816-33.6 32.8576v51.2512L217.984 309.504c-16.1408-9.088-36.608-3.648-45.9008 12.0704-9.2544 15.7312-3.776 35.7888 12.3136 44.864l49.472 27.9808-41.344 23.3344a32.384 32.384 0 0 0-12.3136 44.864 33.664 33.664 0 0 0 29.1456 16.384c5.6576 0 11.456-1.3824 16.7552-4.3904l74.9312-42.2912 142.2848 80.3328-140.2496 79.232-77.0048-43.4432c-16.128-9.152-36.672-3.7248-45.888 12.0064-9.2928 15.7184-3.776 35.7632 12.3136 44.8512l43.392 24.4992-52.6848 29.7472a32.512 32.512 0 0 0-12.3136 44.928 33.7152 33.7152 0 0 0 29.1456 16.384c5.696 0 11.4816-1.408 16.768-4.3136l52.672-29.7984v48.9856c0 18.176 15.0272 32.8576 33.6 32.8576 18.496 0 33.5872-14.6816 33.5872-32.8576v-86.9632l142.272-80.3328v160.7168l-76.9664 43.4688a32.4736 32.4736 0 0 0-12.288 44.9152 33.6384 33.6384 0 0 0 29.1072 16.4096c5.7088 0 11.4688-1.408 16.768-4.3904l43.392-24.512v58.0864c0 18.1632 14.9888 32.8576 33.5616 32.8576 18.56 0 33.6-14.6944 33.6-32.8576v-58.0864l43.4048 24.512c16.0512 9.0112 36.5824 3.6352 45.9008-12.032a32.5376 32.5376 0 0 0-12.3136-44.9024l-76.992-43.52V570.688l142.3104 80.384 0.0256 84.6592c0 18.176 15.0528 32.8576 33.5872 32.8576h0.0384c18.5344 0 33.5488-14.6816 33.5488-32.8576v-46.72l50.6112 28.5696c5.2736 2.9824 11.0464 4.3904 16.7296 4.3904 11.6224 0 22.9248-5.9136 29.1584-16.384 9.2544-15.744 3.776-35.7888-12.3008-44.8768z" p-id="41314" data-spm-anchor-id="a313x.search_index.0.i38.5a663a81i5R8K2" class="selected" fill="#00D1FF"></path></svg>