<?xml version="1.0" standalone="no"?><!DOCTYPE svg PUBLIC "-//W3C//DTD SVG 1.1//EN" "http://www.w3.org/Graphics/SVG/1.1/DTD/svg11.dtd"><svg t="1697521305621" class="icon" viewBox="0 0 1365 1024" version="1.1" xmlns="http://www.w3.org/2000/svg" p-id="39767" xmlns:xlink="http://www.w3.org/1999/xlink" width="64" height="64"><path d="M389.678973 323.729322c95.310513 0 201.88086-30.822373 310.498449-119.536216 322.440697-263.070664 573.569113 33.893237 584.032797 46.631636a44.584393 44.584393 0 0 0 64.488139 5.345577 48.906349 48.906349 0 0 0 5.231842-67.10406c-3.070864-3.753278-318.005005-379.877223-710.165683-59.71124C353.738493 366.039001 88.734323 108.200179 77.360753 97.054081a44.470657 44.470657 0 0 0-64.488139 1.251093 48.906349 48.906349 0 0 0 1.137357 67.217796c2.274714 2.274714 160.936009 158.092617 375.669002 158.092617z m254.085544 117.147767C353.738493 677.561071 88.734323 419.722249 77.360753 408.576151a44.470657 44.470657 0 0 0-64.488139 1.137357 48.906349 48.906349 0 0 0 1.137357 67.445268c2.274714 2.274714 160.936009 158.092617 375.669002 158.092617 95.424249 0 201.88086-30.822373 310.498449-119.536217 322.440697-263.070664 573.569113 33.893237 584.032797 46.631636a44.584393 44.584393 0 0 0 64.488139 5.345577 48.906349 48.906349 0 0 0 5.231842-67.10406c-3.070864-3.753278-318.005005-379.877223-710.165683-59.71124z m0 311.52207C353.738493 989.083141 88.734323 731.130584 77.360753 720.098221a44.584393 44.584393 0 0 0-64.488139 1.137357 48.906349 48.906349 0 0 0 1.137357 67.331532c2.274714 2.274714 160.936009 158.092617 375.669002 158.092617 95.424249 0 201.88086-30.708638 310.498449-119.42248 322.440697-263.070664 573.569113 33.779502 584.032797 46.517899a44.470657 44.470657 0 0 0 64.488139 5.459314 48.906349 48.906349 0 0 0 5.231842-67.104061c-3.070864-3.753278-318.005005-379.877223-710.165683-59.71124z" p-id="39768" fill="#00EBDC"></path></svg>