<?xml version="1.0" standalone="no"?><!DOCTYPE svg PUBLIC "-//W3C//DTD SVG 1.1//EN" "http://www.w3.org/Graphics/SVG/1.1/DTD/svg11.dtd"><svg t="1697521666407" class="icon" viewBox="0 0 1024 1024" version="1.1" xmlns="http://www.w3.org/2000/svg" p-id="70262" xmlns:xlink="http://www.w3.org/1999/xlink" width="64" height="64"><path d="M896.085333 512.085333a476.416 476.416 0 0 1-157.568 353.578667 36.565333 36.565333 0 1 1-48.938666-54.357333 402.261333 402.261333 0 0 0 23.637333-575.189334v56.533334a36.565333 36.565333 0 0 1-73.173333 0V146.346667a36.565333 36.565333 0 0 1 36.608-36.565334h146.261333a36.565333 36.565333 0 0 1 0 73.130667h-59.306667a473.002667 473.002667 0 0 1 132.48 329.173333zM530.346667 73.216c0 6.869333-1.962667 13.653333-5.632 19.456l-4.010667 5.248-379.605333 414.165333 379.605333 414.122667a36.565333 36.565333 0 0 1-48.853333 53.973333l-4.906667-4.394666-402.304-438.826667a36.565333 36.565333 0 0 1-4.266667-43.904l4.266667-5.632 402.304-438.869333a36.565333 36.565333 0 0 1 63.402667 24.661333z" p-id="70263"></path></svg>